<svg xmlns="http://www.w3.org/2000/svg" viewBox="0 0 428.72 360.1"><defs><style>.cls-1{fill:#437d3b;}.cls-2{fill:#bd2026;}.cls-3{fill:none;}</style></defs><g id="katman_2" data-name="katman 2"><g id="katman_1-2" data-name="katman 1"><path class="cls-1" d="M9.92.07c.5.14,3.17,1.33,6,2.6A108.49,108.49,0,0,0,35.08,9.91a84.14,84.14,0,0,0,24,2.74c9.91-.14,18.06-1.06,21.29-2.46s3.87-.92,6.75,5.34c3,6.53,8.71,16.23,11.45,19.32,5.91,6.68,16.94,14.2,26.57,18.14a85.59,85.59,0,0,0,15.53,4.14c6.39.92,14.13.28,18.34-1.54,1.69-.71,2.25-.85,3.09-.57,1.55.5,2,1.76,3.1,7.31,3.51,19,9.41,32.05,22.27,49.06,5.2,6.88,12.87,14.68,17.93,18.27,3.23,2.25,3.44,2.53,3.65,4.29.21,1.54-.14,2.67-2.39,7.3-6.82,14.2-11.95,32.68-14.06,50.18-1.75,14.69-.7,29.38,2.68,38.23,1.33,3.52,1.47,4.29.84,5.34a1.58,1.58,0,0,1-1.48,1c-.77.14-1.68-.35-4.85-2.46a57.73,57.73,0,0,0-13.84-6.75c-20.59-7.1-50.39-8.15-75.9-2.67-5.13,1.13-6.26,1.13-7.8.14-1-.63-1.13-.91-1.9-2.88a106,106,0,0,0-8.64-15.25A153.57,153.57,0,0,0,63.9,186c-9.42-8.85-19.75-15.25-34.16-21.15-1.83-.78-2.74-1.62-2.88-3-.14-.78.21-1.48,1.34-3.24,2.53-3.79,4.77-10.82,5.27-16.65a82.73,82.73,0,0,0-.35-14.48C31.36,114.55,25,99.86,17.79,92.06A88.92,88.92,0,0,0,5.5,81.24C.3,77.23.16,77.09,0,75.76c-.07-1.13.07-1.55,1.41-3.24C3.88,69.36,8.52,53.34,10,43.36,11.47,33,10.77,22.2,7.89,9.41c-1.55-6.67-1.55-7-1.06-7.94A2.75,2.75,0,0,1,9.92.07Zm24,36.4c0,.21,2.81,5.41,6.32,11.6s8.09,14.4,10.26,18.41A358.08,358.08,0,0,0,90.88,127.2c11.88,14.41,38,43.64,47.09,52.71,6,6,16.16,14.61,19.54,16.58,2.46,1.48,4.35,1.2,5.06-.63s.14-3.3-2.25-7.66a89.78,89.78,0,0,0-11.46-15.6c-2-2.32-6.74-7.73-10.4-12S129.18,149.9,126,146.31c-8.92-10.12-28.81-32.75-34.36-39.14-2.74-3.16-7.8-8.86-11.25-12.72C66.64,79,63.12,74.56,48.15,54,44.08,48.42,39.37,42.09,37.68,40,34.59,36.33,33.89,35.56,33.89,36.47Z"/><path class="cls-1" d="M425.61,18.34c-.07.56-.7,3.37-1.54,6.32a107.49,107.49,0,0,0-3.87,20.17,81,81,0,0,0,1.41,24c1.83,9.77,4.15,17.64,6,20.59s1.55,3.65-4.07,7.52c-6,4.08-14.48,11.31-17.08,14.55-5.55,7-11.1,19.11-13.35,29.23a85.06,85.06,0,0,0-1.41,16c.21,6.46,2.18,13.91,4.64,17.78,1,1.54,1.19,2.1,1.05,3-.21,1.61-1.4,2.32-6.67,4.28-18.13,6.68-30,14.76-44.56,30.29-5.9,6.33-12.3,15.18-15,20.81-1.68,3.51-1.9,3.86-3.58,4.35-1.48.42-2.67.28-7.59-1.12-15.18-4.29-34.23-6.26-51.87-5.27-14.76.77-29,4.36-37.24,9.2-3.24,1.9-4,2.18-5.13,1.69a1.57,1.57,0,0,1-1.2-1.26c-.21-.71.07-1.69,1.62-5.2a56.79,56.79,0,0,0,4.28-14.76c3.45-21.51-.56-51-10.33-75.27-2-4.85-2.17-6-1.47-7.66.49-1.12.7-1.27,2.53-2.39A98.8,98.8,0,0,0,234.81,124a154,154,0,0,0,16.87-21c7.1-10.82,11.59-22.06,15-37.24.42-2,1.12-3,2.39-3.38.7-.21,1.47-.07,3.37.78C276.56,65,283.94,66,289.7,65.5A85.7,85.7,0,0,0,304,62.68c12.44-3.93,25.8-12.72,32.33-21.15a89.34,89.34,0,0,0,8.58-14c3-5.84,3.16-6,4.49-6.33,1.06-.28,1.55-.14,3.45.84,3.58,1.9,20.1,3.73,30.15,3.45,10.4-.35,20.94-2.81,33-7.87,6.32-2.6,6.67-2.74,7.66-2.39A3.36,3.36,0,0,1,425.61,18.34ZM393.85,48.21c-.21,0-4.85,3.72-10.33,8.22s-12.86,10.4-16.45,13.21c-20.87,16.45-36.89,31.63-52.92,50.18-12.22,14.13-36.54,44.91-43.92,55.45-4.85,7-11.59,18.48-13,22.14-1,2.67-.49,4.49,1.48,4.84,1.75.36,3.23-.42,7.16-3.51a86.44,86.44,0,0,0,13.43-14c2-2.39,6.46-7.95,10.05-12.3s8.92-11,11.94-14.69c8.44-10.54,27.34-34,32.68-40.55,2.67-3.23,7.45-9.21,10.61-13.28,12.87-16.24,16.59-20.45,34.3-38.73,4.85-5,10.26-10.75,12.09-12.72C394.13,48.91,394.69,48.07,393.85,48.21Z"/><path class="cls-2" d="M194.89,292.07c-26.7,26-72.24-20.24-40.19-44.21,29.58-22.2,67.11,18,40.19,44.21C192.36,294.53,201.43,285.74,194.89,292.07Zm-18.41,2.53c14.83-2.25,2.88-18-7.94-15.46-14.9,3.44-2,16.94,7.94,15.46Z"/><path class="cls-3" d="M253.93,296.57c-.07,0-.07.07-.14.07C256,294.74,254.77,295.86,253.93,296.57Z"/><path class="cls-3" d="M253.86,296.71l-.07.07C253.43,297.06,253.29,297.2,253.86,296.71Z"/><path class="cls-3" d="M236.43,290.38c-5.91,11.11,12.3,10.76,17.36,6.4.07-.07.14-.14.21-.14C265.31,286.24,243,278.08,236.43,290.38Z"/><path class="cls-2" d="M253.86,296.71c.07,0,.07-.07.14-.07s-.14.14-.21.14S253.79,296.71,253.86,296.71Z"/><path class="cls-2" d="M212.32,264.94c-18.41,40,43.57,62.76,54.33,21.51-.21.7-.28,1,0,0,1.82-7,.49-2,0,0C276.28,248.92,228.42,229.94,212.32,264.94Zm41.54,31.77c-.57.49-.43.35-.07.07-5.06,4.36-23.27,4.78-17.36-6.4,6.53-12.3,28.88-4.14,17.57,6.19C254.77,295.86,256,294.74,253.86,296.71Z"/><path class="cls-2" d="M231.79,337.61c-12.16,46.87-80.68,11.95-50-27.34,19.4-24.95,57.49-1.4,50,27.34C230.81,341.54,233.41,331.5,231.79,337.61Zm-16,14.05c10.68-8.36-12.86-19.18-18.77-6.6-5.13,10.82,13.57,10.75,18.77,6.6C217.31,350.47,211.69,354.9,215.77,351.66Z"/></g></g></svg>